<svg width="24" height="25" viewBox="0 0 24 25" fill="none" xmlns="http://www.w3.org/2000/svg">
<g id="icon">
<path id="Vector" d="M8.68952 18.604C8.68952 18.6867 8.59677 18.7529 8.47984 18.7529C8.34677 18.7653 8.25403 18.6991 8.25403 18.604C8.25403 18.5213 8.34677 18.4551 8.46371 18.4551C8.58468 18.4427 8.68952 18.5089 8.68952 18.604ZM7.43548 18.4179C7.40726 18.5006 7.4879 18.5957 7.60887 18.6205C7.71371 18.6619 7.83468 18.6205 7.85887 18.5378C7.88306 18.4551 7.80645 18.36 7.68548 18.3228C7.58065 18.2938 7.46371 18.3352 7.43548 18.4179ZM9.21774 18.3476C9.10081 18.3765 9.02016 18.4551 9.03226 18.5502C9.04435 18.6329 9.14919 18.6867 9.27016 18.6577C9.3871 18.6288 9.46774 18.5502 9.45564 18.4675C9.44355 18.3889 9.33468 18.3352 9.21774 18.3476ZM11.871 2.5C6.27823 2.5 2 6.85477 2 12.5908C2 17.1772 4.81452 21.1019 8.83468 22.4832C9.35081 22.5783 9.53226 22.2516 9.53226 21.9827C9.53226 21.7263 9.52016 20.312 9.52016 19.4435C9.52016 19.4435 6.69758 20.0638 6.10484 18.2111C6.10484 18.2111 5.64516 17.0076 4.98387 16.6975C4.98387 16.6975 4.06048 16.0482 5.04839 16.0606C5.04839 16.0606 6.05242 16.1433 6.60484 17.1276C7.4879 18.7239 8.96774 18.2649 9.54435 17.9919C9.6371 17.3302 9.89919 16.8712 10.1895 16.5982C7.93548 16.3418 5.66129 16.0068 5.66129 12.0284C5.66129 10.8911 5.96774 10.3204 6.6129 9.59253C6.50806 9.32372 6.16532 8.21538 6.71774 6.78447C7.56048 6.51565 9.5 7.90107 9.5 7.90107C10.3065 7.66948 11.1734 7.54955 12.0323 7.54955C12.8911 7.54955 13.7581 7.66948 14.5645 7.90107C14.5645 7.90107 16.504 6.51152 17.3468 6.78447C17.8992 8.21951 17.5565 9.32372 17.4516 9.59253C18.0968 10.3245 18.4919 10.8952 18.4919 12.0284C18.4919 16.0192 16.1169 16.3377 13.8629 16.5982C14.2339 16.9249 14.5484 17.5453 14.5484 18.5171C14.5484 19.9108 14.5363 21.6354 14.5363 21.9745C14.5363 22.2433 14.7218 22.57 15.2339 22.4749C19.2661 21.1019 22 17.1772 22 12.5908C22 6.85477 17.4637 2.5 11.871 2.5ZM5.91935 16.7636C5.86694 16.805 5.87903 16.9001 5.94758 16.9787C6.0121 17.0449 6.10484 17.0738 6.15726 17.02C6.20968 16.9787 6.19758 16.8836 6.12903 16.805C6.06452 16.7388 5.97177 16.7099 5.91935 16.7636ZM5.48387 16.4287C5.45565 16.4824 5.49597 16.5486 5.57661 16.5899C5.64113 16.6313 5.72177 16.6189 5.75 16.561C5.77823 16.5072 5.7379 16.4411 5.65726 16.3997C5.57661 16.3749 5.5121 16.3873 5.48387 16.4287ZM6.79032 17.9009C6.72581 17.9547 6.75 18.0788 6.84274 18.1573C6.93548 18.2524 7.05242 18.2649 7.10484 18.1987C7.15726 18.1449 7.13306 18.0209 7.05242 17.9423C6.96371 17.8472 6.84274 17.8348 6.79032 17.9009ZM6.33065 17.293C6.26613 17.3343 6.26613 17.4419 6.33065 17.537C6.39516 17.6321 6.50403 17.6735 6.55645 17.6321C6.62097 17.5783 6.62097 17.4708 6.55645 17.3757C6.5 17.2806 6.39516 17.2392 6.33065 17.293Z" fill="#A53DFF"/>
</g>
</svg>
