<svg width="24" height="25" viewBox="0 0 24 25" fill="none" xmlns="http://www.w3.org/2000/svg">
<g id="icon">
<path id="Vector" d="M18.875 15H17.625C17.4592 15 17.3003 15.0658 17.1831 15.1831C17.0658 15.3003 17 15.4592 17 15.625V20H4.5V7.5H10.125C10.2908 7.5 10.4497 7.43415 10.5669 7.31694C10.6842 7.19973 10.75 7.04076 10.75 6.875V5.625C10.75 5.45924 10.6842 5.30027 10.5669 5.18306C10.4497 5.06585 10.2908 5 10.125 5H3.875C3.37772 5 2.90081 5.19754 2.54917 5.54917C2.19754 5.90081 2 6.37772 2 6.875L2 20.625C2 21.1223 2.19754 21.5992 2.54917 21.9508C2.90081 22.3025 3.37772 22.5 3.875 22.5H17.625C18.1223 22.5 18.5992 22.3025 18.9508 21.9508C19.3025 21.5992 19.5 21.1223 19.5 20.625V15.625C19.5 15.4592 19.4342 15.3003 19.3169 15.1831C19.1997 15.0658 19.0408 15 18.875 15ZM21.0625 2.5H16.0625C15.2277 2.5 14.8105 3.51211 15.3984 4.10156L16.7941 5.49727L7.27344 15.0145C7.18604 15.1016 7.11669 15.205 7.06937 15.319C7.02206 15.433 6.9977 15.5551 6.9977 15.6785C6.9977 15.8019 7.02206 15.9241 7.06937 16.038C7.11669 16.152 7.18604 16.2555 7.27344 16.3426L8.15898 17.2266C8.24608 17.314 8.34957 17.3833 8.46353 17.4306C8.57748 17.4779 8.69966 17.5023 8.82305 17.5023C8.94643 17.5023 9.06861 17.4779 9.18256 17.4306C9.29652 17.3833 9.40001 17.314 9.48711 17.2266L19.0031 7.70781L20.3984 9.10156C20.9844 9.6875 22 9.27734 22 8.4375V3.4375C22 3.18886 21.9012 2.9504 21.7254 2.77459C21.5496 2.59877 21.3111 2.5 21.0625 2.5Z" fill="#A53DFF"/>
</g>
</svg>
