<svg width="20" height="21" viewBox="0 0 20 21" fill="none" xmlns="http://www.w3.org/2000/svg">
<g id="icon" clip-path="url(#clip0_1323_127)">
<path id="Vector" d="M5.44922 8.99633L2.46484 4.41039C4.32422 2.09789 7.11328 0.824456 9.96484 0.812737C11.6172 0.801019 13.3047 1.22289 14.8398 2.10961C16.5352 3.09399 17.8242 4.50805 18.6445 6.13305L10.625 5.71117C8.35547 5.57836 6.19531 6.85571 5.44922 8.99633ZM6.73438 10.5002C6.73438 12.3049 8.19531 13.7659 10 13.7659C11.8047 13.7659 13.2656 12.3049 13.2656 10.5002C13.2656 8.69555 11.8047 7.23461 10 7.23461C8.19531 7.23461 6.73438 8.69164 6.73438 10.5002ZM19.0352 7.01586L13.5781 7.29711C15.0586 9.02758 15.082 11.5237 13.8359 13.4377L9.45703 20.1721C11.2734 20.2698 13.1445 19.8713 14.8398 18.887C19.0352 16.4651 20.7344 11.387 19.0352 7.01586ZM5.53516 12.3596L1.89062 5.19164C0.894531 6.71508 0.3125 8.54321 0.3125 10.5002C0.3125 15.344 3.85938 19.3557 8.49609 20.0666L10.9844 15.1916C8.73438 15.6135 6.5625 14.3791 5.53516 12.3596Z" fill="#697484"/>
</g>
<defs>
<clipPath id="clip0_1323_127">
<rect width="20" height="20" fill="white" transform="translate(0 0.5)"/>
</clipPath>
</defs>
</svg>
