<svg width="20" height="21" viewBox="0 0 20 21" fill="none" xmlns="http://www.w3.org/2000/svg">
<g id="icon" clip-path="url(#clip0_1323_121)">
<path id="Vector" d="M19.3008 9.69141C19.2734 9.51562 19.2461 9.41406 19.2461 9.41406C19.2461 9.41406 19.1758 9.49219 19.0625 9.64453C19.0273 9.22656 18.9531 8.81641 18.8359 8.41016C18.6914 7.90625 18.5039 7.41797 18.2695 6.94922C18.1211 6.63672 17.9492 6.33984 17.75 6.05859C17.6797 5.95312 17.6055 5.84766 17.5312 5.75C17.1875 5.1875 16.7891 4.83984 16.332 4.1875C16.0352 3.6875 15.8281 3.13672 15.7305 2.5625C15.6055 2.91016 15.5078 3.26562 15.4414 3.62891C14.9687 3.15234 14.5625 2.81641 14.3125 2.58594C13.1016 1.44531 13.2422 0.855469 13.2422 0.855469C13.2422 0.855469 10.9648 3.39844 11.9492 6.04688C12.2891 6.94531 12.8789 7.73047 13.6445 8.30859C14.5977 9.09766 15.6289 9.71484 16.1719 11.3008C15.7344 10.4688 15.0742 9.76953 14.2656 9.28906C14.5078 9.86328 14.6328 10.4844 14.6289 11.1055C14.6289 13.4883 12.6914 15.4219 10.3086 15.418C9.98438 15.418 9.66406 15.3828 9.35156 15.3086C8.98047 15.2383 8.62109 15.1172 8.28125 14.9453C7.77734 14.6406 7.34375 14.2383 7 13.7617L6.99219 13.75L7.07031 13.7773C7.25 13.8398 7.42969 13.8867 7.61719 13.9219C8.34766 14.0781 9.11328 13.9883 9.78906 13.6641C10.4727 13.2852 10.8828 13.0039 11.2188 13.1172H11.2266C11.5547 13.2227 11.8125 12.9023 11.5781 12.5703C11.1719 12.0469 10.5078 11.7891 9.85156 11.9062C9.16797 12.0039 8.54297 12.4922 7.64844 12.0195C7.58984 11.9883 7.53516 11.957 7.48047 11.9219C7.41797 11.8867 7.67188 11.9727 7.61328 11.9336C7.41797 11.8359 7.23047 11.7227 7.05078 11.5977C7.03906 11.5859 7.1875 11.6406 7.17188 11.6289C6.94141 11.4727 6.74219 11.2695 6.58594 11.0352C6.42578 10.7461 6.41016 10.3945 6.54688 10.0938C6.62891 9.94531 6.75781 9.82422 6.91016 9.75391C7.02734 9.8125 7.09766 9.85547 7.09766 9.85547C7.09766 9.85547 7.04688 9.75781 7.01562 9.70703C7.02734 9.70312 7.03516 9.70703 7.04688 9.69922C7.14844 9.74219 7.37109 9.85547 7.49219 9.92578C7.57422 9.96875 7.64062 10.0312 7.69531 10.1094C7.69531 10.1094 7.73438 10.0898 7.70703 10.0039C7.66406 9.89844 7.59375 9.80859 7.49609 9.74609H7.50391C7.59375 9.79297 7.67969 9.84766 7.76172 9.90625C7.83594 9.73438 7.87109 9.54688 7.86328 9.35938C7.87109 9.25781 7.85547 9.15234 7.82031 9.05469C7.78906 8.99219 7.83984 8.96875 7.89453 9.03516C7.88672 8.98438 7.86719 8.9375 7.84766 8.89062V8.88672C7.84766 8.88672 7.87891 8.84375 7.89453 8.82812C7.93359 8.78906 7.97656 8.75391 8.02734 8.72266C8.30859 8.54688 8.60547 8.39453 8.91406 8.26953C9.16406 8.16016 9.37109 8.07812 9.41406 8.05078C9.47656 8.01172 9.53516 7.96484 9.58984 7.91406C9.79688 7.73828 9.94141 7.49219 9.98828 7.22266C9.99219 7.1875 9.99609 7.15234 10 7.11328V7.05469C9.96484 6.91797 9.73047 6.81641 8.5 6.69922C8.06641 6.62891 7.71875 6.30469 7.62109 5.875V5.87109C7.85547 5.25781 8.27734 4.73438 8.82422 4.375C8.85547 4.34766 8.69922 4.38281 8.73047 4.35547C8.83594 4.30469 8.94141 4.25781 9.05078 4.21875C9.10547 4.19531 8.81641 4.08594 8.55859 4.11328C8.40234 4.12109 8.24609 4.16016 8.10156 4.22266C8.16406 4.17188 8.34375 4.10156 8.30078 4.10156C7.97266 4.16406 7.65625 4.28516 7.36719 4.45312C7.36719 4.42188 7.37109 4.39453 7.38672 4.36719C7.15625 4.46484 6.95703 4.62109 6.80078 4.81641C6.80469 4.78125 6.80859 4.74609 6.80859 4.71094C6.70312 4.78906 6.60547 4.87891 6.52344 4.98047L6.51953 4.98438C5.83984 4.72266 5.10156 4.66016 4.38672 4.80078L4.37891 4.79688H4.38672C4.23828 4.67578 4.10938 4.53516 4.00781 4.37109L4 4.375L3.98438 4.36719C3.9375 4.29688 3.89062 4.21875 3.83984 4.13281C3.80469 4.07031 3.76953 4 3.73438 3.92969C3.73438 3.92578 3.73047 3.92188 3.72656 3.92188C3.71094 3.92188 3.70312 3.98828 3.69141 3.97266V3.96875C3.56641 3.64453 3.50781 3.29688 3.51953 2.94531L3.51172 2.94922C3.3125 3.08594 3.16016 3.28516 3.07812 3.51562C3.04297 3.59766 3.01562 3.64453 2.99219 3.69141V3.67188C2.99609 3.62891 3.01562 3.54297 3.01172 3.55078C3.00781 3.55859 3.00391 3.5625 3 3.56641C2.94141 3.63281 2.88672 3.71094 2.84766 3.79297C2.8125 3.86719 2.78125 3.94531 2.75781 4.02344C2.75391 4.03516 2.75781 4.01172 2.75781 3.98438C2.75781 3.95703 2.76172 3.90625 2.75781 3.91797L2.74609 3.94531C2.48438 4.52734 2.32031 5.14844 2.26172 5.78516C2.24609 5.89453 2.23828 6.00391 2.24219 6.10938V6.11719C2.05469 6.32031 1.89062 6.54687 1.74609 6.78516C1.27344 7.58203 0.921875 8.44531 0.699219 9.34766C0.855469 9.00391 1.04297 8.67578 1.25781 8.36719C0.839844 9.42578 0.625 10.5547 0.625 11.6953C0.695312 11.3594 0.789062 11.0312 0.898438 10.707C0.832031 12.0547 1.08984 13.3984 1.65625 14.625C2.41406 16.3242 3.67187 17.75 5.26172 18.7148C5.91016 19.1523 6.61719 19.4922 7.36328 19.7227C7.46094 19.7578 7.5625 19.793 7.66406 19.8281C7.63281 19.8164 7.60156 19.8008 7.57031 19.7891C8.45312 20.0547 9.375 20.1914 10.2969 20.1914C13.5664 20.1914 14.6445 18.9453 14.7422 18.8242C14.9023 18.6797 15.0352 18.5039 15.1289 18.3047C15.1914 18.2773 15.2539 18.25 15.3203 18.2227L15.3594 18.2031L15.4336 18.168C15.9258 17.9375 16.3906 17.6445 16.8125 17.3047C17.4492 16.8477 17.9023 16.1836 18.0977 15.4258C18.2148 15.1484 18.2188 14.8398 18.1133 14.5586C18.1484 14.5039 18.1797 14.4492 18.2188 14.3906C18.9219 13.2617 19.3203 11.9727 19.375 10.6445V10.5352C19.375 10.25 19.3516 9.96875 19.3008 9.69141ZM7.62109 5.87891C7.60547 5.92187 7.58594 5.96875 7.57031 6.01562C7.58594 5.96875 7.60156 5.92578 7.62109 5.87891Z" fill="#697484"/>
</g>
<defs>
<clipPath id="clip0_1323_121">
<rect width="20" height="20" fill="white" transform="translate(0 0.5)"/>
</clipPath>
</defs>
</svg>
