<svg width="20" height="21" viewBox="0 0 20 21" fill="none" xmlns="http://www.w3.org/2000/svg">
<g id="icon" clip-path="url(#clip0_1323_125)">
<path id="Vector" d="M9.25391 10.5312C9.25391 10.1758 9.51172 9.83984 9.89062 9.83984C10.2383 9.83984 10.5703 10.0898 10.5703 10.4688C10.5703 10.8242 10.3203 11.1602 9.94141 11.1602C9.58984 11.1602 9.25391 10.8984 9.25391 10.5312ZM19.6875 10.5C19.6875 15.8516 15.3516 20.1875 10 20.1875C4.64844 20.1875 0.3125 15.8516 0.3125 10.5C0.3125 5.14844 4.64844 0.8125 10 0.8125C15.3516 0.8125 19.6875 5.14844 19.6875 10.5ZM18.6484 10.5C18.6484 5.72266 14.7773 1.85156 10 1.85156C5.22266 1.85156 1.35156 5.72266 1.35156 10.5C1.35156 15.2773 5.22266 19.1484 10 19.1484C14.7773 19.1484 18.6484 15.2773 18.6484 10.5ZM15.8164 14.2734C15.8164 14.4141 16.3242 14.6719 16.4531 14.75C15.3828 16.3711 13.7266 17.5391 11.8477 18.0039L11.6758 17.2812C11.6641 17.1836 11.6016 17.1719 11.5117 17.1719C11.4375 17.1719 11.3945 17.2812 11.4023 17.3359L11.5742 18.0703C11.0547 18.1797 10.5273 18.2344 9.99609 18.2344C8.57812 18.2344 7.18359 17.8359 5.97266 17.0977C6.03906 16.9883 6.44922 16.3945 6.44922 16.3086C6.44922 16.2344 6.38281 16.168 6.30859 16.168C6.15625 16.168 5.83203 16.8164 5.73438 16.9453C4.10156 15.8633 2.92188 14.1875 2.46875 12.2734L3.21484 12.1094C3.30078 12.0859 3.32422 12.0234 3.32422 11.9453C3.32422 11.8711 3.21484 11.8281 3.15234 11.8359L2.42188 12.0039C2.32422 11.5078 2.26953 11.0078 2.26953 10.5C2.26953 9.05078 2.67969 7.625 3.44922 6.40234C3.55859 6.46875 4.07812 6.82422 4.16406 6.82422C4.23828 6.82422 4.30469 6.76953 4.30469 6.69531C4.30469 6.54297 3.73047 6.25391 3.60156 6.16406C4.70312 4.55469 6.37891 3.39453 8.28125 2.96484L8.44531 3.6875C8.46875 3.77344 8.53125 3.79688 8.60938 3.79688C8.6875 3.79688 8.72656 3.6875 8.71875 3.625L8.55469 2.91016C9.03125 2.82422 9.51562 2.76953 10.0039 2.76953C11.4531 2.76953 12.8672 3.17969 14.1016 3.94922C14.0273 4.05859 13.6797 4.56641 13.6797 4.65234C13.6797 4.72656 13.7344 4.79297 13.8086 4.79297C13.9609 4.79297 14.25 4.23047 14.3281 4.10156C15.9297 5.18359 17.0742 6.83594 17.5195 8.71875L16.9141 8.84766C16.8164 8.87109 16.8047 8.93359 16.8047 9.01953C16.8047 9.09375 16.9141 9.13672 16.9688 9.12891L17.5859 8.98828C17.6836 9.48438 17.7383 9.99219 17.7383 10.5C17.7383 11.918 17.3477 13.3125 16.6133 14.5117C16.5039 14.457 16.0508 14.1328 15.9648 14.1328C15.8828 14.1328 15.8164 14.1992 15.8164 14.2734ZM14.5195 4.8125C14.0117 5.28906 9.27734 9.64453 9.14453 9.87109L5.37109 16.1406C5.86719 15.6758 10.6133 11.2969 10.7344 11.0898L14.5195 4.8125Z" fill="#697484"/>
</g>
<defs>
<clipPath id="clip0_1323_125">
<rect width="20" height="20" fill="white" transform="translate(0 0.5)"/>
</clipPath>
</defs>
</svg>
