<svg width="20" height="21" viewBox="0 0 20 21" fill="none" xmlns="http://www.w3.org/2000/svg">
<g id="icon" clip-path="url(#clip0_1323_123)">
<path id="Vector" d="M12.5742 1.77734C5.92578 1.77734 2.70703 10.5195 6.8125 15.6484C8.23828 17.4219 10.2734 18.6016 12.5742 18.6016C13.9922 18.6016 15.3203 18.168 16.457 17.4141C14.7461 18.9453 12.4766 19.875 10 19.875C9.84766 19.875 9.6875 19.875 9.53516 19.8633C4.39844 19.625 0.3125 15.3867 0.3125 10.1875C0.3125 4.83594 4.64844 0.5 10 0.5H10.0312C12.4961 0.511719 14.7461 1.44141 16.4531 2.96484C15.3203 2.20703 13.9883 1.77734 12.5742 1.77734ZM16.5508 17.3125C14.9531 18.2773 13.0078 18.2344 11.3945 17.0859C13.5898 16.2852 15.2109 13.5078 15.2109 10.1875C15.2109 6.87891 13.6016 4.10156 11.4062 3.28906C13.0391 2.14844 14.9688 2.10547 16.5977 3.09375C20.7344 6.94922 20.7188 13.4727 16.5508 17.3125Z" fill="#697484"/>
</g>
<defs>
<clipPath id="clip0_1323_123">
<rect width="20" height="20" fill="white" transform="translate(0 0.5)"/>
</clipPath>
</defs>
</svg>
