<svg width="20" height="21" viewBox="0 0 20 21" fill="none" xmlns="http://www.w3.org/2000/svg">
<g id="icon" clip-path="url(#clip0_1323_119)">
<path id="Vector" d="M1.00439 9.4126C1.00873 9.40627 1.01338 9.39998 1.01775 9.39365C1.01693 9.39998 1.016 9.40627 1.01521 9.4126H1.00439ZM18.9955 10.0184C18.9955 8.29838 18.6926 6.71897 17.8704 5.23694C16.2694 2.37026 13.434 0.812521 10.1129 0.812521C4.64689 0.801701 1.58654 4.9224 1.01775 9.39369C2.67514 6.99869 5.59092 4.65244 9.62615 4.51221C9.62615 4.51221 13.91 4.51221 13.5097 8.61209H6.64045C6.88924 7.1517 7.36521 6.30795 7.98182 5.52904C5.05025 6.89205 3.22205 9.28279 3.26533 12.8851C3.29775 15.676 5.2233 18.5428 7.98186 19.6029C11.238 20.8469 15.5122 19.8842 17.362 18.7699V14.6917C14.2033 16.8985 6.78111 17.0715 6.72705 12.0521H18.9955L18.9955 10.0184Z" fill="#697484"/>
</g>
<defs>
<clipPath id="clip0_1323_119">
<rect width="20" height="20" fill="white" transform="translate(0 0.5)"/>
</clipPath>
</defs>
</svg>
